<?xml version="1.0" encoding="utf-8"?>
<!-- Generator: Adobe Illustrator 19.0.0, SVG Export Plug-In . SVG Version: 6.00 Build 0)  -->
<svg version="1.1" id="Layer" xmlns="http://www.w3.org/2000/svg" xmlns:xlink="http://www.w3.org/1999/xlink" x="0px" y="0px"
	 viewBox="-243 245 512 512" style="enable-background:new -243 245 512 512; fill: #ffffff;" xml:space="preserve">
<path d="M-169.3,478.1c-6.3,6.3-9.7,14.3-9.7,22.9s3.3,16.6,9.4,22.6l139.6,133c3.1,3,7.1,4.4,11,4.4c4.2,0,8.4-1.7,11.6-5
	c6.1-6.4,5.8-16.5-0.6-22.6L-130.2,517H189c8.8,0,16-7.2,16-16s-7.2-16-16-16h-319.7L-8,368.6c6.4-6.1,6.6-16.2,0.6-22.6
	c-6.1-6.4-16.2-6.6-22.6-0.6L-169.3,478.1z"/>
</svg>
